<svg version="1.1" id="Layer_1" xmlns="http://www.w3.org/2000/svg" xmlns:xlink="http://www.w3.org/1999/xlink" x="0px" y="0px"
	 width="100%" viewBox="0 0 447 449" enable-background="new 0 0 447 449" xml:space="preserve">
<path fill="#000000" opacity="1.000000" stroke="none" 
	d="
M208.000000,450.000000 
	C138.685852,450.000000 69.871719,450.000000 1.028789,450.000000 
	C1.028789,300.394257 1.028789,150.788513 1.028789,1.091387 
	C149.897476,1.091387 298.795044,1.091387 447.846313,1.091387 
	C447.846313,150.666550 447.846313,300.333252 447.846313,450.000000 
	C368.121826,450.000000 288.310913,450.000000 208.000000,450.000000 
M265.520477,313.786163 
	C270.940338,312.181091 276.568970,311.067688 281.738342,308.872711 
	C294.027771,303.654449 302.516663,294.774780 306.260345,281.648651 
	C314.105621,254.141190 301.544586,229.287796 274.718750,219.446564 
	C273.121552,218.860626 271.551697,218.200211 269.029236,217.202820 
	C272.225555,215.522095 274.423370,214.465714 276.525757,213.244965 
	C291.434509,204.588165 298.646759,191.492569 298.316864,174.383820 
	C297.989349,157.397781 290.881622,144.240784 275.520325,136.108688 
	C265.582794,130.847870 254.818542,128.456665 243.742905,128.357895 
	C211.080200,128.066559 178.413742,128.178787 145.748917,128.232391 
	C144.577744,128.234314 143.408325,129.283951 142.238083,129.845291 
	C143.210831,130.651794 144.069977,131.918503 145.174515,132.191162 
	C153.196381,134.171417 156.061020,137.096100 157.054474,145.438248 
	C157.604538,150.057159 157.889160,154.735107 157.895691,159.386993 
	C157.954254,201.051971 157.935013,242.717072 157.901779,284.382111 
	C157.898865,288.042267 157.676300,291.704529 157.482300,295.361877 
	C157.034164,303.810272 154.095871,310.293518 144.645660,311.791534 
	C143.806427,311.924561 143.142990,313.166534 142.397919,313.893494 
	C143.360825,314.512421 144.262939,315.285645 145.307541,315.697266 
	C146.032242,315.982880 146.953110,315.779602 147.786346,315.779419 
	C178.951752,315.772827 210.117920,315.881500 241.281998,315.674194 
	C249.085464,315.622253 256.882141,314.553406 265.520477,313.786163 
z"/>
<path fill="#F9F9F8" opacity="1.000000" stroke="none" 
	d="
M265.101196,313.869049 
	C256.882141,314.553406 249.085464,315.622253 241.281998,315.674194 
	C210.117920,315.881500 178.951752,315.772827 147.786346,315.779419 
	C146.953110,315.779602 146.032242,315.982880 145.307541,315.697266 
	C144.262939,315.285645 143.360825,314.512421 142.397919,313.893494 
	C143.142990,313.166534 143.806427,311.924561 144.645660,311.791534 
	C154.095871,310.293518 157.034164,303.810272 157.482300,295.361877 
	C157.676300,291.704529 157.898865,288.042267 157.901779,284.382111 
	C157.935013,242.717072 157.954254,201.051971 157.895691,159.386993 
	C157.889160,154.735107 157.604538,150.057159 157.054474,145.438248 
	C156.061020,137.096100 153.196381,134.171417 145.174515,132.191162 
	C144.069977,131.918503 143.210831,130.651794 142.238083,129.845291 
	C143.408325,129.283951 144.577744,128.234314 145.748917,128.232391 
	C178.413742,128.178787 211.080200,128.066559 243.742905,128.357895 
	C254.818542,128.456665 265.582794,130.847870 275.520325,136.108688 
	C290.881622,144.240784 297.989349,157.397781 298.316864,174.383820 
	C298.646759,191.492569 291.434509,204.588165 276.525757,213.244965 
	C274.423370,214.465714 272.225555,215.522095 269.029236,217.202820 
	C271.551697,218.200211 273.121552,218.860626 274.718750,219.446564 
	C301.544586,229.287796 314.105621,254.141190 306.260345,281.648651 
	C302.516663,294.774780 294.027771,303.654449 281.738342,308.872711 
	C276.568970,311.067688 270.940338,312.181091 265.101196,313.869049 
M190.787048,186.499908 
	C190.787048,227.547073 190.787048,268.594238 190.787048,309.322815 
	C208.793884,309.322815 225.942139,309.826599 243.042511,309.139435 
	C253.808014,308.706848 262.185364,302.847351 267.743317,293.439087 
	C278.484314,275.257172 278.050873,234.692352 252.366211,221.270630 
	C248.828949,219.422195 249.320450,217.174225 251.676331,214.033478 
	C255.601334,208.800842 259.833832,203.372025 261.991180,197.330994 
	C266.212860,185.509216 266.099640,173.126556 263.061401,160.888763 
	C258.528564,142.630722 247.867035,134.213120 229.127792,134.032761 
	C223.630875,133.979858 218.133041,134.018280 212.635635,134.017227 
	C205.528137,134.015869 198.420654,134.016891 190.786835,134.016891 
	C190.786835,151.594391 190.786835,168.547150 190.787048,186.499908 
z"/>
<path fill="#030303" opacity="1.000000" stroke="none" 
	d="
M190.786942,185.999908 
	C190.786835,168.547150 190.786835,151.594391 190.786835,134.016891 
	C198.420654,134.016891 205.528137,134.015869 212.635635,134.017227 
	C218.133041,134.018280 223.630875,133.979858 229.127792,134.032761 
	C247.867035,134.213120 258.528564,142.630722 263.061401,160.888763 
	C266.099640,173.126556 266.212860,185.509216 261.991180,197.330994 
	C259.833832,203.372025 255.601334,208.800842 251.676331,214.033478 
	C249.320450,217.174225 248.828949,219.422195 252.366211,221.270630 
	C278.050873,234.692352 278.484314,275.257172 267.743317,293.439087 
	C262.185364,302.847351 253.808014,308.706848 243.042511,309.139435 
	C225.942139,309.826599 208.793884,309.322815 190.787048,309.322815 
	C190.787048,268.594238 190.787048,227.547073 190.786942,185.999908 
M212.757828,212.437485 
	C212.426865,214.551758 211.737091,216.681747 211.829025,218.777481 
	C212.169281,226.534668 218.971802,232.100433 226.838318,231.301056 
	C234.377670,230.534943 239.512619,223.765579 238.399994,216.059464 
	C237.594559,210.481033 233.778030,206.259277 228.343475,204.935226 
	C222.406265,203.488708 217.420547,205.718063 212.757828,212.437485 
z"/>
<path fill="#F7F7F7" opacity="1.000000" stroke="none" 
	d="
M212.916840,212.099823 
	C217.420547,205.718063 222.406265,203.488708 228.343475,204.935226 
	C233.778030,206.259277 237.594559,210.481033 238.399994,216.059464 
	C239.512619,223.765579 234.377670,230.534943 226.838318,231.301056 
	C218.971802,232.100433 212.169281,226.534668 211.829025,218.777481 
	C211.737091,216.681747 212.426865,214.551758 212.916840,212.099823 
z"/>
</svg>